<svg xmlns:dc="http://purl.org/dc/elements/1.1/" xmlns:cc="http://creativecommons.org/ns#" xmlns:rdf="http://www.w3.org/1999/02/22-rdf-syntax-ns#" xmlns:svg="http://www.w3.org/2000/svg" xmlns="http://www.w3.org/2000/svg" xmlns:sodipodi="http://sodipodi.sourceforge.net/DTD/sodipodi-0.dtd" xmlns:inkscape="http://www.inkscape.org/namespaces/inkscape" version="1.1" x="0px" y="0px" viewBox="0 0 100 125"><g transform="translate(0,-952.36218)"><path style="text-indent:0;text-transform:none;direction:ltr;block-progression:tb;baseline-shift:baseline;color:#000000;enable-background:accumulate;" d="m 12.156254,971.37359 c -0.13584,9.8125 -0.16768,38.52051 -0.15625,50.98481 -1.69427,0 -3.4067597,0 -5.0937497,0 -0.49158,0.046 -0.90838,0.5064 -0.90625,1.0003 l 0,4.0013 c 0,3.8618 3.13932,7.0022 6.9999997,7.0022 l 74,0 c 3.86068,0 7,-3.1404 7,-7.0022 l 0,-4.0013 c -5e-5,-0.5237 -0.47642,-1.0002 -1,-1.0003 l -5,0 c -2e-5,-16.2824 0,-34.31661 0,-50.98481 -5e-5,-0.5237 -0.47642,-1.0002 -1,-1.0003 -12.99929,0 -55.98063,-0.025 -73.84375,0 -0.64165,0.057 -0.9209,0.3949 -1,1.0003 z m 2,1.0003 c 18.02755,-0.024 58.41587,0 71.84375,0 0,16.3943 -2e-5,34.02221 0,49.98451 l -72,0 c -0.0108,-12.2124 0.0282,-39.70571 0.15625,-49.98451 z m 3,3.001 c -0.13814,9.9785 -0.16965,31.98501 -0.15625,44.01381 l 66,0 c -2e-5,-16.5363 0,-27.00851 0,-44.01381 -12.99929,0 -47.98288,-0.025 -65.84375,0 z m -9.1562497,48.98421 83.9999997,0 0,3.0009 c 0,2.7882 -2.21268,5.0016 -5,5.0016 l -74,0 c -2.78732,0 -4.9999997,-2.2134 -4.9999997,-5.0016 z" fill="#000000" fill-opacity="1" stroke="none" marker="none" visibility="visible" display="inline" overflow="visible"/></g><text x="0" y="115" fill="#000000" font-size="5px" font-weight="bold" font-family="'Helvetica Neue', Helvetica, Arial-Unicode, Arial, Sans-serif">Created by art shop</text><text x="0" y="120" fill="#000000" font-size="5px" font-weight="bold" font-family="'Helvetica Neue', Helvetica, Arial-Unicode, Arial, Sans-serif">from the Noun Project</text></svg>